<svg xmlns="http://www.w3.org/2000/svg" viewBox="0 0 261.37 62.73"><defs><style>.cls-1{fill:#272326;}.cls-2{fill:#dbc455;}.cls-3{fill:#010103;}</style></defs><g id="Camada_2" data-name="Camada 2"><g id="Camada_1-2" data-name="Camada 1"><path class="cls-1" d="M231.06,4.78l-.52-.37a9.31,9.31,0,0,0-.85-.52,9,9,0,0,0-.88-.43,8.68,8.68,0,0,0-.94-.34c-.32-.1-.65-.19-1-.26s-.67-.12-1-.15-.66,0-1,0-.72,0-1,0-.68.09-1,.15-.65.16-1,.26a8,8,0,0,0-.94.34c-.3.13-.6.27-.89.43h0c-.29.17-.57.34-.84.52l-.52.37a7.79,7.79,0,0,1,1.81-.21,8.44,8.44,0,0,1,2.64.45,8.4,8.4,0,0,1,1.22.55c.19.1.36.2.53.31.17-.11.34-.21.53-.31A8,8,0,0,1,226.59,5a8.44,8.44,0,0,1,2.64-.45,8.48,8.48,0,0,1,1.83.21m3,34.05-.37-.3c-.52-.43-1-.86-1.42-1.29s-.86-.91-1.29-1.44a18.92,18.92,0,0,1-1.14-1.53c-.35-.52-.68-1.07-1-1.66s-.58-1.15-.84-1.75-.48-1.23-.67-1.85-.35-1.26-.48-1.91c-.1-.48-.18-1-.25-1.47s-.11-1-.13-1.48l2.63-.13c0,.44.06.87.11,1.28s.13.84.21,1.27.26,1.11.43,1.66a15.93,15.93,0,0,0,.58,1.6c.22.52.46,1,.72,1.51s.55,1,.87,1.44.66.93,1,1.34a13.86,13.86,0,0,0,1.12,1.23,15.56,15.56,0,0,0,1.22,1.13c.41.34.85.67,1.33,1s1,.62,1.43.88,1,.5,1.5.72a16.93,16.93,0,0,0,1.6.59c.54.17,1.09.31,1.65.43s1.13.2,1.72.26a19.4,19.4,0,0,0,3.52,0c.58-.06,1.16-.15,1.72-.26s1.11-.26,1.65-.43a16.93,16.93,0,0,0,1.6-.59c.51-.22,1-.46,1.49-.72s.95-.56,1.44-.88.92-.66,1.33-1l.25-.22L235.4,13.94l-.36-.42,0-.63c0-.37,0-.72-.05-1s-.09-.69-.16-1a8.74,8.74,0,0,0-.24-1c0-.16-.11-.32-.16-.47a7.16,7.16,0,0,0-.84-1.05,6.11,6.11,0,0,0-4.34-1.81,5.61,5.61,0,0,0-1,.09,6,6,0,0,0-1,.24,7.78,7.78,0,0,0-.93.42,5.74,5.74,0,0,0-.85.57l-.21.16-.3.39-.09.12-.09-.12L224.44,8l-.2-.16a5.74,5.74,0,0,0-.85-.57,7.78,7.78,0,0,0-.93-.42,6,6,0,0,0-1-.24,5.61,5.61,0,0,0-1-.09A6.08,6.08,0,0,0,218.1,7a6.23,6.23,0,0,0-2,1.34,6,6,0,0,0-.8,1,4.56,4.56,0,0,0-.18.52c-.1.33-.18.65-.25,1a8.35,8.35,0,0,0-.15,1,8.53,8.53,0,0,0,0,1c0,.8.09,1.62.18,2.44s.23,1.67.39,2.46.42,1.86.7,2.76.61,1.81,1,2.68a27.62,27.62,0,0,0,1.21,2.51,25.1,25.1,0,0,0,1.45,2.4c.53.79,1.08,1.53,1.65,2.23s1.19,1.38,1.86,2.05c.44.45.86.85,1.24,1.19s.85.73,1.32,1.11l.51.38v3.73Zm-.14-35a11.05,11.05,0,0,1,.82.92,10.6,10.6,0,0,1,.74,1c.22.32.43.68.64,1.06h0c.18.34.35.71.53,1.13s.31.79.43,1.19a12.32,12.32,0,0,1,.32,1.23c.08.42.15.86.19,1.29s0,.58.06.85l17,17.08-.11-17.94-7.77-7.8Zm-5,7.19a2,2,0,1,1-2,2.21c-.12.15-.24.31-.36.49a8.75,8.75,0,0,0-1.42,4.59v.14l-.38.35-.44-.35v-.14a8.67,8.67,0,0,0-1.43-4.59c-.11-.18-.23-.34-.34-.49a2.07,2.07,0,0,1-.59,1.26,2,2,0,0,1-2.85,0,2,2,0,0,1-.59-1.43,2,2,0,0,1,.59-1.44,2,2,0,0,1,1.42-.6h0l.19,0a1.91,1.91,0,0,1,.67.19,5.52,5.52,0,0,1,2.16,2,9.54,9.54,0,0,1,1.15,2.47,9.54,9.54,0,0,1,1.15-2.47,5.52,5.52,0,0,1,2.16-2,1.91,1.91,0,0,1,.67-.19l.19,0h0ZM255.8,40.72l-.63.32h0l-1,.49c-.61.25-1.22.48-1.85.68s-1.24.35-1.89.49-1.32.23-2,.3a18.51,18.51,0,0,1-4,0c-.67-.07-1.34-.17-2-.3s-1.28-.3-1.9-.49-1.23-.43-1.84-.68L237.53,41h-14v-1.6c0-1.6,0-2.39,0-3l-.93-.8c-.51-.46-1-.89-1.37-1.29-.69-.7-1.36-1.45-2-2.26a28.72,28.72,0,0,1-1.81-2.42c-.55-.83-1.08-1.7-1.57-2.62a27.77,27.77,0,0,1-1.32-2.75c-.4-1-.76-1.94-1.07-2.93s-.55-2-.76-3-.33-1.79-.43-2.68-.17-1.78-.2-2.72v0c0-.42,0-.86.06-1.31s.11-.87.2-1.29a12.29,12.29,0,0,1,.31-1.23,10.66,10.66,0,0,1,.44-1.19,11.7,11.7,0,0,1,.54-1.13h0c.19-.36.41-.71.64-1.06s.47-.66.74-1a9.67,9.67,0,0,1,.83-.92A10.86,10.86,0,0,1,216.7,3c.34-.28.66-.53,1-.75s.71-.45,1.06-.65h0A12.22,12.22,0,0,1,222.27.27a11,11,0,0,1,1.28-.2,11.83,11.83,0,0,1,1.3-.07,11.65,11.65,0,0,1,1.29.07,11.16,11.16,0,0,1,1.29.2c.41.08.82.19,1.22.31a11.29,11.29,0,0,1,1.18.44,10.51,10.51,0,0,1,1.12.54h16.79L256.86,11v20.8l3.55,3.56,1,.93-.95,1c-.43.43-.9.86-1.42,1.29s-1,.8-1.53,1.15a18.29,18.29,0,0,1-1.64,1Z"/><polygon class="cls-2" points="246.74 3.78 246.74 11.58 254.49 11.58 246.74 3.78"/><path class="cls-1" d="M144.32,24.43a8.86,8.86,0,0,0,0-1,3.76,3.76,0,0,0-.88-2.07,3.48,3.48,0,0,0-1.1-.86,6.63,6.63,0,0,0-1.72-.6,11.89,11.89,0,0,0-2.5-.23,11.53,11.53,0,0,0-1.43.08,5,5,0,0,0-1.41.36A4.83,4.83,0,0,0,134,21a4.53,4.53,0,0,0-1,1.47,9.54,9.54,0,0,0-.7,2.27,17.69,17.69,0,0,0-.26,3.24v2.34a16.48,16.48,0,0,0,.34,3.66,5.35,5.35,0,0,0,1,2.17A3.39,3.39,0,0,0,135,37.16a8.6,8.6,0,0,0,2.33.28,25.43,25.43,0,0,0,3.5-.26c1-.15,1.92-.27,2.73-.34a1.47,1.47,0,0,1,.42,0,1,1,0,0,1,.33.07V24.43Zm-.74,15.4c-.86.07-1.89.17-3.12.31a38.26,38.26,0,0,1-4,.19,8.34,8.34,0,0,1-4.08-.85,5.91,5.91,0,0,1-2.32-2.33A9.6,9.6,0,0,1,129,33.67a35.7,35.7,0,0,1-.24-4.28v-.23a27.85,27.85,0,0,1,.46-5.41,11.34,11.34,0,0,1,1.46-3.88,6.37,6.37,0,0,1,2.55-2.32,8.16,8.16,0,0,1,3.73-.77c.79,0,1.61,0,2.45.1a17.06,17.06,0,0,1,2.41.38A10.63,10.63,0,0,1,144,18a6.32,6.32,0,0,1,1.81,1.24,5.58,5.58,0,0,1,1.22,1.85,6.6,6.6,0,0,1,.45,2.55V38.29a2,2,0,0,1-.2,1,1.67,1.67,0,0,1-.55.6,2.23,2.23,0,0,1-.82.31,6.33,6.33,0,0,1-1,.08Zm40.87-22.17a.75.75,0,0,1,.14-.49.91.91,0,0,1,.35-.29,1.37,1.37,0,0,1,.51-.12,5.52,5.52,0,0,1,.58,0,3.52,3.52,0,0,1,1.12.16.7.7,0,0,1,.48.76V36.77a2.28,2.28,0,0,1-.87,1.89,5.92,5.92,0,0,1-2.37,1.06,19.7,19.7,0,0,1-3.54.46c-1.36.07-2.82.11-4.37.11a7.92,7.92,0,0,1-3.86-.83,5.84,5.84,0,0,1-2.34-2.36,10.66,10.66,0,0,1-1.17-3.71,34.74,34.74,0,0,1-.32-4.92V17.66a.81.81,0,0,1,.14-.49,1.12,1.12,0,0,1,.36-.29,1.37,1.37,0,0,1,.51-.12,5.52,5.52,0,0,1,.58,0,3.46,3.46,0,0,1,1.13.16.71.71,0,0,1,.47.76l0,9.61c0,1.76.06,3.28.17,4.56a9.89,9.89,0,0,0,.72,3.15,3.83,3.83,0,0,0,1.6,1.82,5.81,5.81,0,0,0,2.83.59c1.17,0,2.17,0,3-.07a15.37,15.37,0,0,0,2-.21,6.11,6.11,0,0,0,1.23-.32,1.75,1.75,0,0,0,.65-.43.93.93,0,0,0,.25-.53,3.86,3.86,0,0,0,0-.6V17.66Zm-28.34,2.25V33.13a7,7,0,0,0,.26,2,3,3,0,0,0,.81,1.33,3,3,0,0,0,1.38.72,7.8,7.8,0,0,0,2,.23,5.65,5.65,0,0,0,1.84-.26,7.21,7.21,0,0,0,1.23-.55,4.78,4.78,0,0,0,.8-.55,1,1,0,0,1,.59-.25.87.87,0,0,1,.83.34,1.61,1.61,0,0,1,.2.84,2,2,0,0,1-.45,1.19,4.33,4.33,0,0,1-1.23,1.06,7.46,7.46,0,0,1-1.87.78,8.72,8.72,0,0,1-2.34.3,12.42,12.42,0,0,1-2.58-.27,6.51,6.51,0,0,1-2.33-1,5.27,5.27,0,0,1-1.69-1.94,7.12,7.12,0,0,1-.64-3.22V20a4.77,4.77,0,0,1-.76,0,1.46,1.46,0,0,1-.64-.19,1.22,1.22,0,0,1-.45-.5,2.11,2.11,0,0,1-.16-.92,1.84,1.84,0,0,1,.11-.73.74.74,0,0,1,.35-.39,1.7,1.7,0,0,1,.63-.16c.26,0,.56,0,.92,0V13.23a.76.76,0,0,1,.48-.79,3.53,3.53,0,0,1,1.13-.17l.58,0a1.73,1.73,0,0,1,.5.14.88.88,0,0,1,.36.3.86.86,0,0,1,.14.49V17h6.79l.76,0a2.52,2.52,0,0,1,.83.08,1.37,1.37,0,0,1,.67.38,1.15,1.15,0,0,1,.28.87,2.11,2.11,0,0,1-.26,1,.81.81,0,0,1-.68.5,3.91,3.91,0,0,1-.74.05h-7.65ZM75.91,37.44a7.87,7.87,0,0,0,3.23-.56A4.3,4.3,0,0,0,81,35.23a6.89,6.89,0,0,0,.88-2.68,26.4,26.4,0,0,0,.22-3.65v-.71a26.2,26.2,0,0,0-.22-3.63A6.78,6.78,0,0,0,81,21.89a4.17,4.17,0,0,0-1.87-1.65,7.71,7.71,0,0,0-3.23-.56H75.5a7.68,7.68,0,0,0-3.23.56,4.15,4.15,0,0,0-1.88,1.65,6.78,6.78,0,0,0-.87,2.67,28.12,28.12,0,0,0-.2,3.63v.71a28.12,28.12,0,0,0,.2,3.63,6.88,6.88,0,0,0,.87,2.68,4.27,4.27,0,0,0,1.88,1.65,7.65,7.65,0,0,0,3.23.58Zm-.27,2.89A13.67,13.67,0,0,1,72,39.9a7.89,7.89,0,0,1-2.59-1.24,6.33,6.33,0,0,1-1.7-1.88,9.53,9.53,0,0,1-1-2.39,16.87,16.87,0,0,1-.45-2.77c-.07-1-.11-2-.11-3v-.09c0-1,0-2,.11-3a17,17,0,0,1,.45-2.78,9.53,9.53,0,0,1,1-2.39,6.36,6.36,0,0,1,1.7-1.89A8.08,8.08,0,0,1,72,17.22a13.64,13.64,0,0,1,3.68-.44h.13a13.69,13.69,0,0,1,3.68.44A7.88,7.88,0,0,1,82,18.44a6.54,6.54,0,0,1,1.71,1.89,9.17,9.17,0,0,1,1,2.39,16,16,0,0,1,.46,2.78c.07,1,.11,2,.11,3v.09c0,1,0,2-.11,3a15.86,15.86,0,0,1-.46,2.77,9.17,9.17,0,0,1-1,2.39A6.5,6.5,0,0,1,82,38.66a7.7,7.7,0,0,1-2.59,1.24,13.72,13.72,0,0,1-3.68.43Zm34.11-.94a.84.84,0,0,1-.14.51.92.92,0,0,1-.36.28,1.27,1.27,0,0,1-.5.13,5.72,5.72,0,0,1-.58,0,3.54,3.54,0,0,1-1.13-.16.71.71,0,0,1-.48-.78V20.48a2.38,2.38,0,0,1,.87-1.92,6.23,6.23,0,0,1,2.37-1.13,19.24,19.24,0,0,1,3.54-.53c1.36-.08,2.82-.12,4.37-.12a8,8,0,0,1,3.86.83A6,6,0,0,1,123.92,20a11,11,0,0,1,1.16,3.73,34.9,34.9,0,0,1,.32,4.91V39.39a.84.84,0,0,1-.14.51.92.92,0,0,1-.36.28,1.32,1.32,0,0,1-.5.13l-.58,0a3.7,3.7,0,0,1-1.13-.16.73.73,0,0,1-.48-.79l0-9.61c0-1.75-.06-3.26-.17-4.53a9.83,9.83,0,0,0-.72-3.15,3.88,3.88,0,0,0-1.6-1.84,5.82,5.82,0,0,0-2.83-.58c-1.17,0-2.17,0-3,.08a17,17,0,0,0-2,.23,4.9,4.9,0,0,0-1.23.37,1.91,1.91,0,0,0-.65.47,1.1,1.1,0,0,0-.25.55,4.21,4.21,0,0,0,0,.62V39.39ZM98.56,16.78a8.75,8.75,0,0,1,2,.29,4.86,4.86,0,0,1,1.41.62,2.76,2.76,0,0,1,.82.86,2.08,2.08,0,0,1,.25,1,1.69,1.69,0,0,1,0,.38,1.37,1.37,0,0,1-.15.38.75.75,0,0,1-.31.3,1.2,1.2,0,0,1-.54.11,1.15,1.15,0,0,1-.64-.16l-.62-.36a4.81,4.81,0,0,0-.93-.35,6.24,6.24,0,0,0-1.61-.16A15.24,15.24,0,0,0,95,20a7.54,7.54,0,0,0-1.87.65,2.28,2.28,0,0,0-.88.76,1.47,1.47,0,0,0-.22.6V39.35a.82.82,0,0,1-.14.5,1.07,1.07,0,0,1-.36.3,1.47,1.47,0,0,1-.5.15l-.58,0a3.26,3.26,0,0,1-1.13-.19.78.78,0,0,1-.48-.79V20.92a2.34,2.34,0,0,1,.42-1.35,4.43,4.43,0,0,1,1.15-1.08,8.56,8.56,0,0,1,1.69-.81,12.7,12.7,0,0,1,2-.55,17.89,17.89,0,0,1,2.2-.29C97.12,16.78,97.85,16.77,98.56,16.78ZM53.43,19.91V33.13a7,7,0,0,0,.26,2,3,3,0,0,0,.81,1.33,3,3,0,0,0,1.38.72,7.8,7.8,0,0,0,2,.23,5.65,5.65,0,0,0,1.84-.26A7.21,7.21,0,0,0,61,36.63a5.38,5.38,0,0,0,.81-.55.92.92,0,0,1,.58-.25.9.9,0,0,1,.84.34,1.71,1.71,0,0,1,.19.84,2,2,0,0,1-.45,1.19,4.33,4.33,0,0,1-1.23,1.06,7.46,7.46,0,0,1-1.87.78,8.72,8.72,0,0,1-2.34.3,12.42,12.42,0,0,1-2.58-.27,6.39,6.39,0,0,1-2.32-1,5.2,5.2,0,0,1-1.7-1.94,7,7,0,0,1-.64-3.22V20a4.77,4.77,0,0,1-.76,0,1.46,1.46,0,0,1-.64-.19,1.22,1.22,0,0,1-.45-.5,2.11,2.11,0,0,1-.16-.92,1.84,1.84,0,0,1,.11-.73.74.74,0,0,1,.35-.39,1.7,1.7,0,0,1,.63-.16c.26,0,.56,0,.92,0V13.23a.76.76,0,0,1,.48-.79,3.53,3.53,0,0,1,1.13-.17l.58,0a1.83,1.83,0,0,1,.5.14.88.88,0,0,1,.36.3.86.86,0,0,1,.14.49V17h6.79L61,17a2.52,2.52,0,0,1,.83.08,1.37,1.37,0,0,1,.67.38,1.15,1.15,0,0,1,.28.87,2.11,2.11,0,0,1-.26,1,.81.81,0,0,1-.68.5,4,4,0,0,1-.74.05H53.43Zm-18,0V33.13a6.61,6.61,0,0,0,.27,2,3,3,0,0,0,.8,1.33,3,3,0,0,0,1.38.72,7.8,7.8,0,0,0,2,.23,5.65,5.65,0,0,0,1.84-.26A7.21,7.21,0,0,0,43,36.63a5.38,5.38,0,0,0,.81-.55.94.94,0,0,1,.58-.25.9.9,0,0,1,.84.34,1.71,1.71,0,0,1,.19.84A1.89,1.89,0,0,1,45,38.2a4.33,4.33,0,0,1-1.23,1.06,7.46,7.46,0,0,1-1.87.78,8.72,8.72,0,0,1-2.34.3A12.42,12.42,0,0,1,37,40.07a6.39,6.39,0,0,1-2.32-1,5.2,5.2,0,0,1-1.7-1.94,7.12,7.12,0,0,1-.64-3.22V20a4.63,4.63,0,0,1-.75,0,1.46,1.46,0,0,1-.65-.19,1.22,1.22,0,0,1-.45-.5,2.11,2.11,0,0,1-.16-.92,1.84,1.84,0,0,1,.11-.73.72.72,0,0,1,.36-.39,1.65,1.65,0,0,1,.62-.16c.26,0,.56,0,.92,0V13.23a.76.76,0,0,1,.48-.79,3.53,3.53,0,0,1,1.13-.17l.58,0a1.73,1.73,0,0,1,.5.14.88.88,0,0,1,.36.3.86.86,0,0,1,.14.49V17h6.8L43,17a2.52,2.52,0,0,1,.83.08,1.4,1.4,0,0,1,.68.38,1.19,1.19,0,0,1,.27.87,2.22,2.22,0,0,1-.25,1,.83.83,0,0,1-.69.5,3.91,3.91,0,0,1-.74.05H35.48ZM23.31,33h-18l-2.11,6.3A1.65,1.65,0,1,1,.09,38.23L9,11.48l0-.11h0A6.19,6.19,0,0,1,12.19,8a5.16,5.16,0,0,1,4.08,0,6.39,6.39,0,0,1,3.28,3.4l.06.15,9,26.77a1.67,1.67,0,0,1-1,2.11,1.65,1.65,0,0,1-2.09-1.05Zm-17-3h16L16.5,12.64A3.12,3.12,0,0,0,15,11a2,2,0,0,0-.74-.15,1.87,1.87,0,0,0-.72.16,2.93,2.93,0,0,0-1.4,1.6Zm187.81-7a2.35,2.35,0,0,0,.62,1.69,4.7,4.7,0,0,0,1.63,1.09,15,15,0,0,0,2.29.76l2.63.65A27,27,0,0,1,204,28a9,9,0,0,1,2.3,1.17,5.46,5.46,0,0,1,1.62,1.76,5,5,0,0,1,.62,2.62,8.61,8.61,0,0,1-.13,1.47,5.82,5.82,0,0,1-.47,1.54,5.88,5.88,0,0,1-1,1.45,5.65,5.65,0,0,1-1.6,1.21A9,9,0,0,1,203,40a15.57,15.57,0,0,1-3.25.3,20.18,20.18,0,0,1-3.19-.26,15.42,15.42,0,0,1-2.91-.76,7.24,7.24,0,0,1-2.11-1.18,2,2,0,0,1-.82-1.54,1.43,1.43,0,0,1,.23-.79.79.79,0,0,1,.7-.34,2.57,2.57,0,0,1,1,.31,15.14,15.14,0,0,0,1.57.68,14.74,14.74,0,0,0,5.54,1,9.54,9.54,0,0,0,2.19-.24,5.87,5.87,0,0,0,1.77-.72,3.57,3.57,0,0,0,1.18-1.17,3.19,3.19,0,0,0,.43-1.69,2.33,2.33,0,0,0-.62-1.68,4.7,4.7,0,0,0-1.63-1.09,13.11,13.11,0,0,0-2.29-.74l-2.63-.66c-.91-.23-1.79-.49-2.64-.79a8.53,8.53,0,0,1-2.29-1.18,5.52,5.52,0,0,1-1.63-1.8A5.26,5.26,0,0,1,191,23a5.57,5.57,0,0,1,.65-2.71,5.92,5.92,0,0,1,1.77-2A7.79,7.79,0,0,1,196,17.17a12.26,12.26,0,0,1,3.13-.39c.38,0,.83,0,1.34,0A14.82,14.82,0,0,1,202,17c.55.09,1.1.22,1.66.37a7.7,7.7,0,0,1,1.54.6,4.92,4.92,0,0,1,1.25.9,3.43,3.43,0,0,1,.78,1.26,2.22,2.22,0,0,1,.06.51,1.07,1.07,0,0,1-.14.46,1,1,0,0,1-.37.36,1.26,1.26,0,0,1-.62.14,1.88,1.88,0,0,1-.91-.31,13.7,13.7,0,0,0-1.36-.65,13.32,13.32,0,0,0-2-.66,11.21,11.21,0,0,0-2.84-.31,6.91,6.91,0,0,0-2.35.34,4.61,4.61,0,0,0-1.51.86,2.89,2.89,0,0,0-1,2.11Z"/><path class="cls-3" d="M210,62.57v-.69h-4.32v-8h-.77v8a.66.66,0,0,0,.75.7Zm-9.22-2.66h-3.87l2-5.3Zm1.78,2.66-3.08-8.34a.6.6,0,0,0-.6-.43.59.59,0,0,0-.59.45l-3.13,8.32H196l.76-2H201l.75,2Zm-7.91-8v-.68h-6.27v.68h2.75v8h.76v-8Zm-8.84,8V53.89h-.75v8.68Zm-6.49.09a9.22,9.22,0,0,0,2.18-.3c.46-.13.65-.31.65-.76V59.22a.63.63,0,0,0-.71-.7h-2.15v.65h2.16v2.55a9.29,9.29,0,0,1-2.13.26c-1.9,0-3.25-1.15-3.25-3.72s1.23-3.7,3.16-3.7a8.72,8.72,0,0,1,2.17.42l.59.18.15-.71-.55-.17a8.1,8.1,0,0,0-2.35-.43c-2.22,0-3.94,1.4-3.94,4.41S177.08,62.66,179.35,62.66Zm-6.86-.09V53.89h-.76v8.68Zm-4.31-4.32c0,2.31-1.13,3.64-3.09,3.64h-2.16V54.55H165C167,54.55,168.18,56,168.18,58.25Zm.75,0c0-2.74-1.49-4.36-3.77-4.36h-2.23a.67.67,0,0,0-.76.71v7.27a.67.67,0,0,0,.76.7h2.2C167.37,62.57,168.93,61,168.93,58.25Zm-17,1.66H148.1l2-5.3Zm1.77,2.66-3.07-8.34a.63.63,0,0,0-1.2,0l-3.13,8.32h.78l.75-2h4.32l.75,2Zm-9.77,0V53.89h-.75v8.68Zm-4.42-6.37a2.55,2.55,0,0,1-.58,1.44l-.5.7h-3.23V54.53H138C139.14,54.53,139.56,55.23,139.56,56.2Zm1.19,6.37L139,58.78l.71-.93a2.82,2.82,0,0,0,.62-1.66,2.07,2.07,0,0,0-2.28-2.3h-2.82a.62.62,0,0,0-.71.69v8h.75V59h3l1.64,3.58Zm-9.81-4.32c0,2.43-1.17,3.76-3.1,3.76s-3.15-1.34-3.15-3.76,1.18-3.73,3.13-3.73S130.94,55.86,130.94,58.25Zm.76,0c0-2.82-1.55-4.41-3.85-4.41s-3.91,1.6-3.91,4.41,1.55,4.41,3.86,4.41S131.7,61.12,131.7,58.25Zm-11,0c0,2.31-1.13,3.64-3.09,3.64h-2.17V54.55h2.09C119.54,54.55,120.7,56,120.7,58.25Zm.75,0c0-2.74-1.5-4.36-3.77-4.36h-2.24a.66.66,0,0,0-.75.71v7.27a.67.67,0,0,0,.75.7h2.21C119.88,62.57,121.45,61,121.45,58.25Zm-10.89,1.66h-3.88l2-5.3Zm1.77,2.66-3.07-8.34a.61.61,0,0,0-.61-.43.6.6,0,0,0-.59.45l-3.13,8.32h.78l.75-2h4.32l.75,2ZM102,56.2a2.55,2.55,0,0,1-.58,1.44l-.5.7H97.7V54.53h2.73C101.6,54.53,102,55.23,102,56.2Zm1.19,6.37-1.77-3.79.7-.93a2.83,2.83,0,0,0,.63-1.66,2.08,2.08,0,0,0-2.28-2.3H97.67a.62.62,0,0,0-.71.69v8h.74V59h3l1.64,3.58Zm-9.32-3.06V53.89h-.74v5.62a2.5,2.5,0,1,1-5,0V53.89H87.4v5.62a3.25,3.25,0,0,0,6.49,0ZM78.31,58.25c0,3.09,1.6,4.41,3.76,4.41a7.35,7.35,0,0,0,2.23-.42l.54-.17-.13-.7-.57.17a7,7,0,0,1-2,.41c-1.81,0-3-1.12-3-3.7s1.18-3.7,3-3.7a7.29,7.29,0,0,1,2,.41l.56.17.14-.69-.54-.17a7.33,7.33,0,0,0-2.23-.43C80,53.84,78.31,55.24,78.31,58.25Zm-3.29,0c0,2.43-1.17,3.76-3.1,3.76s-3.15-1.34-3.15-3.76S70,54.52,71.9,54.52,75,55.86,75,58.25Zm.76,0c0-2.82-1.55-4.41-3.85-4.41S68,55.44,68,58.25s1.55,4.41,3.86,4.41S75.78,61.12,75.78,58.25Zm-11-2a2.53,2.53,0,0,1-.57,1.44l-.5.7H60.46V54.53h2.73C64.36,54.53,64.77,55.23,64.77,56.2ZM66,62.57,64.2,58.78l.7-.93a2.83,2.83,0,0,0,.63-1.66,2.08,2.08,0,0,0-2.29-2.3H60.43a.62.62,0,0,0-.71.69v8h.74V59h3l1.64,3.58Zm-9.61-6.09a1.77,1.77,0,0,1-1.87,2H52.06V54.53h2.5A1.76,1.76,0,0,1,56.36,56.48Zm.7,0a2.39,2.39,0,0,0-2.45-2.6H52.08a.65.65,0,0,0-.74.7v8h.72V59.09h2.43A2.43,2.43,0,0,0,57.06,56.49Z"/></g></g></svg>